<svg id="Capa_1" enable-background="new 0 0 512 512" height="80" viewBox="0 0 512 512" width="80" xmlns="http://www.w3.org/2000/svg" xmlns:xlink="http://www.w3.org/1999/xlink"><linearGradient id="SVGID_1_" gradientUnits="userSpaceOnUse" x1="256" x2="256" y1="482.001" y2="30"><stop offset="0" stop-color="#00b59c"/><stop offset="1" stop-color="#9cffac"/></linearGradient><g><g><path d="m508.823 217.77c-2.843-3.641-7.204-5.769-11.823-5.769h-15.316l-129.342-175.887c-4.89-6.65-14.235-8.1-20.91-3.242l-48.516 35.303c-6.726 4.894-8.183 14.336-3.248 21.031l90.54 122.795h-228.416l90.539-122.795c4.936-6.695 3.478-16.137-3.248-21.031l-48.516-35.303c-6.675-4.857-16.019-3.408-20.91 3.242l-129.341 175.887h-15.316c-4.619 0-8.98 2.128-11.823 5.769-2.842 3.641-3.849 8.388-2.729 12.869l48.638 194.553c8.362 33.448 38.282 56.81 72.761 56.81h268.307c34.479 0 64.399-23.361 72.761-56.81l48.638-194.553c1.119-4.481.113-9.229-2.73-12.869zm-196.05-134.219 24.242-17.64 107.43 146.09h-36.964zm-137.788-17.64 24.242 17.64-94.709 128.45h-36.963zm258.825 352.004c-5.017 20.069-22.969 34.086-43.656 34.086h-268.307c-20.687 0-38.639-14.017-43.656-34.086l-43.979-175.914h443.577zm-177.81 4.086c8.284 0 15-6.716 15-15v-120c0-8.284-6.716-15-15-15s-15 6.716-15 15v120c0 8.284 6.716 15 15 15zm88.14-.116c8.239 1.026 15.719-4.818 16.745-13.024l15-120c1.027-8.22-4.803-15.717-13.024-16.745-8.218-1.027-15.717 4.803-16.745 13.024l-15 120c-1.027 8.221 4.803 15.717 13.024 16.745zm-193.024-13.024c1.026 8.205 8.505 14.051 16.745 13.024 8.221-1.028 14.051-8.524 13.024-16.745l-15-120c-1.028-8.22-8.532-14.051-16.745-13.024-8.221 1.028-14.051 8.524-13.024 16.745z" fill="url(#SVGID_1_)"/></g></g></svg>